# Blender v2.68 (sub 0) OBJ File: 'small.blend'
# www.blender.org
o Icosphere
v 0.000000 -1.000000 0.000000
v 0.760845 -0.447220 0.525725
v -0.290611 -0.447220 0.850649
v -0.940454 -0.447216 0.000000
v -0.290611 -0.447220 -0.850649
v 0.760845 -0.447220 -0.525725
v 0.290611 0.447220 0.850649
v -0.760845 0.447220 0.525725
v -0.760845 0.447220 -0.525725
v 0.290611 0.447220 -0.850649
v 0.940454 0.447216 0.000000
v 0.000000 1.000000 0.000000
v 0.447210 -0.850654 0.309011
v 0.276396 -0.525738 0.809012
v -0.170816 -0.850654 0.499995
v 0.447210 -0.850654 -0.309011
v 0.894423 -0.525736 0.000000
v -0.723604 -0.525736 0.499997
v -0.552784 -0.850652 0.000000
v -0.723604 -0.525736 -0.499997
v -0.170816 -0.850654 -0.499995
v 0.276396 -0.525738 -0.809012
v 1.000000 0.000000 -0.309013
v 1.000000 0.000000 0.309013
v 0.618033 0.000000 0.809017
v 0.000000 0.000000 1.000000
v -0.618033 0.000000 0.809017
v -1.000000 0.000000 0.309013
v -1.000000 0.000000 -0.309013
v -0.618033 0.000000 -0.809017
v 0.000000 0.000000 -1.000000
v 0.618033 0.000000 -0.809017
v 0.723604 0.525736 0.499997
v -0.276396 0.525738 0.809012
v -0.894423 0.525736 0.000000
v -0.276396 0.525738 -0.809012
v 0.723604 0.525736 -0.499997
v 0.552784 0.850652 0.000000
v 0.170816 0.850654 0.499995
v -0.447210 0.850654 0.309011
v -0.447210 0.850654 -0.309011
v 0.170816 0.850654 -0.499995
v 0.447210 -0.850654 0.309011
v 0.447210 -0.850654 0.309011
v 0.447210 -0.850654 0.309011
v 0.447210 -0.850654 0.309011
v 0.447210 -0.850654 0.309011
v 0.760845 -0.447220 0.525725
v 0.760845 -0.447220 0.525725
v 0.760845 -0.447220 0.525725
v 0.760845 -0.447220 0.525725
v 0.276396 -0.525738 0.809012
v 0.276396 -0.525738 0.809012
v 0.276396 -0.525738 0.809012
v 0.276396 -0.525738 0.809012
v 0.276396 -0.525738 0.809012
v -0.290611 -0.447220 0.850649
v -0.290611 -0.447220 0.850649
v -0.290611 -0.447220 0.850649
v -0.290611 -0.447220 0.850649
v -0.170816 -0.850654 0.499995
v -0.170816 -0.850654 0.499995
v -0.170816 -0.850654 0.499995
v -0.170816 -0.850654 0.499995
v -0.170816 -0.850654 0.499995
v 0.000000 -1.000000 0.000000
v 0.000000 -1.000000 0.000000
v 0.000000 -1.000000 0.000000
v 0.000000 -1.000000 0.000000
v 0.447210 -0.850654 -0.309011
v 0.447210 -0.850654 -0.309011
v 0.447210 -0.850654 -0.309011
v 0.447210 -0.850654 -0.309011
v 0.447210 -0.850654 -0.309011
v 0.760845 -0.447220 -0.525725
v 0.760845 -0.447220 -0.525725
v 0.760845 -0.447220 -0.525725
v 0.760845 -0.447220 -0.525725
v 0.894423 -0.525736 0.000000
v 0.894423 -0.525736 0.000000
v 0.894423 -0.525736 0.000000
v 0.894423 -0.525736 0.000000
v 0.894423 -0.525736 0.000000
v -0.723604 -0.525736 0.499997
v -0.723604 -0.525736 0.499997
v -0.723604 -0.525736 0.499997
v -0.723604 -0.525736 0.499997
v -0.723604 -0.525736 0.499997
v -0.940454 -0.447216 0.000000
v -0.940454 -0.447216 0.000000
v -0.940454 -0.447216 0.000000
v -0.940454 -0.447216 0.000000
v -0.552784 -0.850652 0.000000
v -0.552784 -0.850652 0.000000
v -0.552784 -0.850652 0.000000
v -0.552784 -0.850652 0.000000
v -0.552784 -0.850652 0.000000
v -0.723604 -0.525736 -0.499997
v -0.723604 -0.525736 -0.499997
v -0.723604 -0.525736 -0.499997
v -0.723604 -0.525736 -0.499997
v -0.723604 -0.525736 -0.499997
v -0.290611 -0.447220 -0.850649
v -0.290611 -0.447220 -0.850649
v -0.290611 -0.447220 -0.850649
v -0.290611 -0.447220 -0.850649
v -0.170816 -0.850654 -0.499995
v -0.170816 -0.850654 -0.499995
v -0.170816 -0.850654 -0.499995
v -0.170816 -0.850654 -0.499995
v -0.170816 -0.850654 -0.499995
v 0.276396 -0.525738 -0.809012
v 0.276396 -0.525738 -0.809012
v 0.276396 -0.525738 -0.809012
v 0.276396 -0.525738 -0.809012
v 0.276396 -0.525738 -0.809012
v 1.000000 0.000000 -0.309013
v 1.000000 0.000000 -0.309013
v 1.000000 0.000000 -0.309013
v 1.000000 0.000000 -0.309013
v 1.000000 0.000000 -0.309013
v 0.940454 0.447216 0.000000
v 0.940454 0.447216 0.000000
v 0.940454 0.447216 0.000000
v 0.940454 0.447216 0.000000
v 1.000000 0.000000 0.309013
v 1.000000 0.000000 0.309013
v 1.000000 0.000000 0.309013
v 1.000000 0.000000 0.309013
v 1.000000 0.000000 0.309013
v 0.618033 0.000000 0.809017
v 0.618033 0.000000 0.809017
v 0.618033 0.000000 0.809017
v 0.618033 0.000000 0.809017
v 0.618033 0.000000 0.809017
v 0.290611 0.447220 0.850649
v 0.290611 0.447220 0.850649
v 0.290611 0.447220 0.850649
v 0.290611 0.447220 0.850649
v 0.000000 0.000000 1.000000
v 0.000000 0.000000 1.000000
v 0.000000 0.000000 1.000000
v 0.000000 0.000000 1.000000
v 0.000000 0.000000 1.000000
v -0.618033 0.000000 0.809017
v -0.618033 0.000000 0.809017
v -0.618033 0.000000 0.809017
v -0.618033 0.000000 0.809017
v -0.618033 0.000000 0.809017
v -0.760845 0.447220 0.525725
v -0.760845 0.447220 0.525725
v -0.760845 0.447220 0.525725
v -0.760845 0.447220 0.525725
v -1.000000 0.000000 0.309013
v -1.000000 0.000000 0.309013
v -1.000000 0.000000 0.309013
v -1.000000 0.000000 0.309013
v -1.000000 0.000000 0.309013
v -1.000000 0.000000 -0.309013
v -1.000000 0.000000 -0.309013
v -1.000000 0.000000 -0.309013
v -1.000000 0.000000 -0.309013
v -1.000000 0.000000 -0.309013
v -0.760845 0.447220 -0.525725
v -0.760845 0.447220 -0.525725
v -0.760845 0.447220 -0.525725
v -0.760845 0.447220 -0.525725
v -0.618033 0.000000 -0.809017
v -0.618033 0.000000 -0.809017
v -0.618033 0.000000 -0.809017
v -0.618033 0.000000 -0.809017
v -0.618033 0.000000 -0.809017
v 0.000000 0.000000 -1.000000
v 0.000000 0.000000 -1.000000
v 0.000000 0.000000 -1.000000
v 0.000000 0.000000 -1.000000
v 0.000000 0.000000 -1.000000
v 0.290611 0.447220 -0.850649
v 0.290611 0.447220 -0.850649
v 0.290611 0.447220 -0.850649
v 0.290611 0.447220 -0.850649
v 0.618033 0.000000 -0.809017
v 0.618033 0.000000 -0.809017
v 0.618033 0.000000 -0.809017
v 0.618033 0.000000 -0.809017
v 0.618033 0.000000 -0.809017
v 0.723604 0.525736 0.499997
v 0.723604 0.525736 0.499997
v 0.723604 0.525736 0.499997
v 0.723604 0.525736 0.499997
v 0.723604 0.525736 0.499997
v -0.276396 0.525738 0.809012
v -0.276396 0.525738 0.809012
v -0.276396 0.525738 0.809012
v -0.276396 0.525738 0.809012
v -0.276396 0.525738 0.809012
v -0.894423 0.525736 0.000000
v -0.894423 0.525736 0.000000
v -0.894423 0.525736 0.000000
v -0.894423 0.525736 0.000000
v -0.894423 0.525736 0.000000
v -0.276396 0.525738 -0.809012
v -0.276396 0.525738 -0.809012
v -0.276396 0.525738 -0.809012
v -0.276396 0.525738 -0.809012
v -0.276396 0.525738 -0.809012
v 0.723604 0.525736 -0.499997
v 0.723604 0.525736 -0.499997
v 0.723604 0.525736 -0.499997
v 0.723604 0.525736 -0.499997
v 0.723604 0.525736 -0.499997
v 0.552784 0.850652 0.000000
v 0.552784 0.850652 0.000000
v 0.552784 0.850652 0.000000
v 0.552784 0.850652 0.000000
v 0.552784 0.850652 0.000000
v 0.000000 1.000000 0.000000
v 0.000000 1.000000 0.000000
v 0.000000 1.000000 0.000000
v 0.000000 1.000000 0.000000
v 0.170816 0.850654 0.499995
v 0.170816 0.850654 0.499995
v 0.170816 0.850654 0.499995
v 0.170816 0.850654 0.499995
v 0.170816 0.850654 0.499995
v -0.447210 0.850654 0.309011
v -0.447210 0.850654 0.309011
v -0.447210 0.850654 0.309011
v -0.447210 0.850654 0.309011
v -0.447210 0.850654 0.309011
v -0.447210 0.850654 -0.309011
v -0.447210 0.850654 -0.309011
v -0.447210 0.850654 -0.309011
v -0.447210 0.850654 -0.309011
v -0.447210 0.850654 -0.309011
v 0.170816 0.850654 -0.499995
v 0.170816 0.850654 -0.499995
v 0.170816 0.850654 -0.499995
v 0.170816 0.850654 -0.499995
v 0.170816 0.850654 -0.499995
vn 0.097419 -0.943996 0.315248
vn 0.682113 -0.677755 0.274536
vn -0.255795 -0.946776 0.195408
vn -0.255795 -0.946776 -0.195408
vn 0.097419 -0.943996 -0.315248
vn 0.896465 -0.344114 0.279170
vn 0.023536 -0.330396 0.943549
vn -0.880067 -0.343626 0.327724
vn -0.555303 -0.335722 -0.760874
vn 0.515495 -0.334989 -0.788700
vn 0.787946 -0.129679 0.601933
vn -0.292882 -0.126196 0.947784
vn -0.991252 -0.131983 0.000000
vn -0.292882 -0.126196 -0.947784
vn 0.787946 -0.129679 -0.601933
vn 0.392075 0.667046 0.633504
vn -0.453064 0.668830 0.589406
vn -0.682113 0.677755 -0.274536
vn 0.036647 0.661746 -0.748832
vn 0.706517 0.678906 -0.199801
vn -0.036647 -0.661746 0.748832
vn 0.178714 -0.795996 0.578318
vn 0.453064 -0.668830 0.589406
vn 0.682113 -0.677755 -0.274536
vn 0.587784 -0.809018 0.000000
vn 0.316754 -0.948508 0.000000
vn -0.706517 -0.678906 0.199801
vn -0.472557 -0.803970 0.361003
vn -0.392075 -0.667046 0.633504
vn -0.392075 -0.667046 -0.633504
vn -0.472557 -0.803970 -0.361003
vn -0.706517 -0.678906 -0.199801
vn 0.453064 -0.668830 -0.589406
vn 0.178714 -0.795996 -0.578318
vn -0.036647 -0.661746 -0.748832
vn 0.991252 0.131983 -0.000000
vn 0.980426 -0.196887 0.000000
vn 0.896465 -0.344114 -0.279170
vn 0.292882 0.126196 0.947784
vn 0.289954 -0.188428 0.938308
vn 0.515495 -0.334989 0.788700
vn -0.787946 0.129679 0.601933
vn -0.779635 -0.193520 0.595584
vn -0.555303 -0.335722 0.760874
vn -0.787946 0.129679 -0.601933
vn -0.779635 -0.193520 -0.595584
vn -0.880067 -0.343626 -0.327724
vn 0.292882 0.126196 -0.947784
vn 0.289954 -0.188428 -0.938308
vn 0.023536 -0.330396 -0.943549
vn 0.555303 0.335722 0.760874
vn 0.779635 0.193520 0.595584
vn 0.880067 0.343626 0.327724
vn -0.515495 0.334989 0.788700
vn -0.289954 0.188428 0.938308
vn -0.023536 0.330396 0.943549
vn -0.896465 0.344114 -0.279170
vn -0.980426 0.196887 0.000000
vn -0.896465 0.344114 0.279170
vn -0.023536 0.330396 -0.943549
vn -0.289954 0.188428 -0.938308
vn -0.515495 0.334989 -0.788700
vn 0.880067 0.343626 -0.327724
vn 0.779635 0.193520 -0.595584
vn 0.555303 0.335722 -0.760874
vn 0.255795 0.946776 0.195408
vn 0.472557 0.803970 0.361003
vn 0.706517 0.678906 0.199801
vn -0.097419 0.943996 0.315248
vn -0.178713 0.795996 0.578318
vn 0.036647 0.661746 0.748832
vn -0.316754 0.948508 0.000000
vn -0.587784 0.809018 0.000000
vn -0.682113 0.677755 0.274536
vn -0.097419 0.943996 -0.315248
vn -0.178713 0.795996 -0.578318
vn -0.453064 0.668830 -0.589406
vn 0.255795 0.946776 -0.195408
vn 0.472557 0.803970 -0.361003
vn 0.392075 0.667046 -0.633504
s off
f 1//1 43//1 15//1
f 2//2 13//2 17//2
f 66//3 62//3 19//3
f 67//4 94//4 21//4
f 68//5 108//5 70//5
f 48//6 80//6 24//6
f 3//7 14//7 26//7
f 4//8 18//8 28//8
f 5//9 20//9 30//9
f 75//10 22//10 32//10
f 50//11 127//11 131//11
f 59//12 141//12 145//12
f 91//13 155//13 159//13
f 105//14 169//14 173//14
f 76//15 183//15 117//15
f 136//16 33//16 39//16
f 150//17 34//17 40//17
f 164//18 35//18 41//18
f 178//19 36//19 42//19
f 122//20 37//20 212//20
f 61//21 53//21 57//21
f 65//22 44//22 54//22
f 46//23 49//23 52//23
f 79//24 16//24 6//24
f 83//25 45//25 71//25
f 47//26 69//26 73//26
f 93//27 85//27 89//27
f 97//28 63//28 86//28
f 64//29 58//29 84//29
f 107//30 99//30 103//30
f 111//31 95//31 100//31
f 96//32 90//32 98//32
f 72//33 113//33 77//33
f 74//34 109//34 114//34
f 110//35 104//35 112//35
f 126//36 23//36 11//36
f 130//37 81//37 118//37
f 82//38 78//38 120//38
f 140//39 25//39 7//39
f 144//40 55//40 132//40
f 56//41 51//41 134//41
f 154//42 27//42 8//42
f 158//43 87//43 146//43
f 88//44 60//44 148//44
f 168//45 29//45 9//45
f 172//46 101//46 160//46
f 102//47 92//47 162//47
f 182//48 31//48 10//48
f 186//49 115//49 174//49
f 116//50 106//50 176//50
f 133//51 188//51 138//51
f 135//52 128//52 189//52
f 129//53 123//53 187//53
f 147//54 193//54 152//54
f 149//55 142//55 194//55
f 143//56 137//56 192//56
f 161//57 198//57 166//57
f 163//58 156//58 199//58
f 157//59 151//59 197//59
f 175//60 203//60 180//60
f 177//61 170//61 204//61
f 171//62 165//62 202//62
f 119//63 208//63 124//63
f 121//64 184//64 209//64
f 185//65 179//65 207//65
f 221//66 38//66 12//66
f 225//67 190//67 213//67
f 191//68 125//68 215//68
f 226//69 222//69 217//69
f 230//70 195//70 223//70
f 196//71 139//71 224//71
f 231//72 227//72 218//72
f 235//73 200//73 228//73
f 201//74 153//74 229//74
f 236//75 232//75 219//75
f 240//76 205//76 233//76
f 206//77 167//77 234//77
f 214//78 237//78 220//78
f 216//79 210//79 238//79
f 211//80 181//80 239//80
